<svg xmlns="http://www.w3.org/2000/svg" version="1.1" xmlns:xlink="http://www.w3.org/1999/xlink" xmlns:svgjs="http://svgjs.dev/svgjs" width="70" height="74"><svg width="70" height="74" viewBox="0 0 70 74" fill="none" xmlns="http://www.w3.org/2000/svg">
<path d="M10.496 0V10.496H0V0H10.496ZM10.496 17.472V73.472H0V17.472H10.496Z" fill="#232121"></path>
<path d="M69.6875 17.472V28.032H27.6395V31.488L69.6875 73.472H55.6715L24.1835 41.984V73.472H13.6875V28.032H20.6635V24.512H24.1835V20.992H20.6635V17.472H13.6875V0H24.1835V14.016H27.6395V17.472H69.6875ZM27.6395 28.032H24.1835V24.512C24.1835 26.432 22.5835 28.032 20.6635 28.032H24.1835V31.488C24.1835 30.528 24.5675 29.632 25.1435 28.992C25.7835 28.416 26.6795 28.032 27.6395 28.032ZM24.1835 20.992V17.472H20.6635C22.5835 17.472 24.1835 19.072 24.1835 20.992Z" fill="#232121"></path>
</svg><style>@media (prefers-color-scheme: light) { :root { filter: none; } }
@media (prefers-color-scheme: dark) { :root { filter: invert(100%); } }
</style></svg>